<?xml version="1.0" encoding="UTF-8"?><svg xmlns="http://www.w3.org/2000/svg" xmlns:xlink="http://www.w3.org/1999/xlink" width="375" zoomAndPan="magnify" viewBox="0 0 375 374.999991" height="374.999991" preserveAspectRatio="xMidYMid meet" version="1.0"><defs><clipPath id="clip-0"><path d="M 474.765625 213.578125 C 474.765625 218.28125 474.652344 222.980469 474.417969 227.675781 C 474.1875 232.371094 473.84375 237.058594 473.382812 241.734375 C 472.921875 246.414062 472.347656 251.078125 471.65625 255.726562 C 470.96875 260.378906 470.164062 265.007812 469.246094 269.621094 C 468.328125 274.230469 467.300781 278.816406 466.15625 283.375 C 465.015625 287.9375 463.761719 292.464844 462.398438 296.964844 C 461.03125 301.460938 459.558594 305.925781 457.972656 310.351562 C 456.390625 314.777344 454.699219 319.164062 452.898438 323.503906 C 451.101562 327.847656 449.195312 332.144531 447.1875 336.394531 C 445.175781 340.644531 443.0625 344.84375 440.847656 348.988281 C 438.632812 353.132812 436.316406 357.222656 433.898438 361.253906 C 431.480469 365.289062 428.96875 369.257812 426.355469 373.167969 C 423.742188 377.074219 421.039062 380.917969 418.238281 384.695312 C 415.4375 388.46875 412.546875 392.175781 409.5625 395.808594 C 406.582031 399.441406 403.511719 403 400.355469 406.484375 C 397.195312 409.96875 393.957031 413.371094 390.632812 416.695312 C 387.308594 420.019531 383.90625 423.261719 380.421875 426.417969 C 376.9375 429.574219 373.378906 432.644531 369.746094 435.628906 C 366.113281 438.609375 362.40625 441.5 358.628906 444.300781 C 354.855469 447.101562 351.011719 449.808594 347.101562 452.417969 C 343.195312 455.03125 339.222656 457.546875 335.191406 459.960938 C 331.160156 462.378906 327.070312 464.695312 322.925781 466.910156 C 318.777344 469.128906 314.582031 471.242188 310.332031 473.25 C 306.082031 475.261719 301.785156 477.164062 297.441406 478.964844 C 293.097656 480.761719 288.714844 482.453125 284.289062 484.039062 C 279.859375 485.621094 275.398438 487.097656 270.898438 488.460938 C 266.402344 489.824219 261.871094 491.078125 257.3125 492.222656 C 252.75 493.363281 248.167969 494.394531 243.554688 495.308594 C 238.945312 496.226562 234.3125 497.03125 229.664062 497.71875 C 225.015625 498.410156 220.351562 498.984375 215.671875 499.445312 C 210.992188 499.90625 206.304688 500.253906 201.609375 500.484375 C 196.914062 500.714844 192.21875 500.828125 187.515625 500.828125 C 182.816406 500.828125 178.117188 500.714844 173.421875 500.484375 C 168.726562 500.253906 164.039062 499.90625 159.359375 499.445312 C 154.683594 498.984375 150.019531 498.410156 145.367188 497.722656 C 140.71875 497.03125 136.085938 496.226562 131.476562 495.308594 C 126.867188 494.394531 122.28125 493.363281 117.71875 492.222656 C 113.160156 491.078125 108.628906 489.824219 104.132812 488.460938 C 99.632812 487.097656 95.171875 485.621094 90.746094 484.039062 C 86.316406 482.453125 81.933594 480.761719 77.589844 478.964844 C 73.246094 477.164062 68.949219 475.261719 64.699219 473.25 C 60.449219 471.242188 56.253906 469.128906 52.105469 466.910156 C 47.960938 464.695312 43.871094 462.378906 39.839844 459.960938 C 35.808594 457.546875 31.835938 455.03125 27.929688 452.417969 C 24.019531 449.808594 20.175781 447.101562 16.402344 444.300781 C 12.625 441.5 8.921875 438.609375 5.285156 435.628906 C 1.652344 432.644531 -1.90625 429.574219 -5.390625 426.417969 C -8.871094 423.261719 -12.277344 420.019531 -15.601562 416.695312 C -18.925781 413.371094 -22.164062 409.96875 -25.320312 406.484375 C -28.480469 403 -31.550781 399.441406 -34.53125 395.808594 C -37.511719 392.175781 -40.40625 388.46875 -43.207031 384.695312 C -46.003906 380.917969 -48.710938 377.074219 -51.324219 373.167969 C -53.933594 369.257812 -56.449219 365.289062 -58.867188 361.253906 C -61.285156 357.222656 -63.601562 353.132812 -65.816406 348.988281 C -68.03125 344.84375 -70.144531 340.644531 -72.15625 336.394531 C -74.164062 332.144531 -76.070312 327.847656 -77.867188 323.503906 C -79.667969 319.164062 -81.359375 314.777344 -82.941406 310.351562 C -84.527344 305.925781 -86 301.460938 -87.363281 296.964844 C -88.730469 292.464844 -89.984375 287.9375 -91.125 283.375 C -92.269531 278.816406 -93.296875 274.230469 -94.214844 269.621094 C -95.132812 265.007812 -95.933594 260.378906 -96.625 255.726562 C -97.316406 251.078125 -97.890625 246.414062 -98.351562 241.734375 C -98.8125 237.058594 -99.15625 232.371094 -99.386719 227.675781 C -99.617188 222.980469 -99.734375 218.28125 -99.734375 213.578125 C -99.734375 208.878906 -99.617188 204.179688 -99.386719 199.484375 C -99.15625 194.789062 -98.8125 190.101562 -98.351562 185.425781 C -97.890625 180.746094 -97.316406 176.082031 -96.625 171.429688 C -95.933594 166.78125 -95.132812 162.152344 -94.214844 157.539062 C -93.296875 152.929688 -92.269531 148.34375 -91.125 143.785156 C -89.984375 139.222656 -88.730469 134.695312 -87.363281 130.195312 C -86 125.695312 -84.527344 121.234375 -82.941406 116.808594 C -81.359375 112.382812 -79.667969 107.996094 -77.867188 103.652344 C -76.070312 99.3125 -74.164062 95.015625 -72.15625 90.765625 C -70.144531 86.515625 -68.03125 82.316406 -65.816406 78.171875 C -63.601562 74.023438 -61.285156 69.9375 -58.867188 65.902344 C -56.449219 61.871094 -53.933594 57.902344 -51.324219 53.992188 C -48.710938 50.082031 -46.003906 46.242188 -43.207031 42.464844 C -40.40625 38.6875 -37.511719 34.984375 -34.53125 31.351562 C -31.550781 27.714844 -28.480469 24.15625 -25.320312 20.675781 C -22.164062 17.191406 -18.925781 13.789062 -15.601562 10.464844 C -12.277344 7.140625 -8.871094 3.898438 -5.390625 0.742188 C -1.90625 -2.414062 1.652344 -5.484375 5.285156 -8.46875 C 8.921875 -11.449219 12.625 -14.339844 16.402344 -17.140625 C 20.175781 -19.941406 24.019531 -22.648438 27.929688 -25.261719 C 31.835938 -27.871094 35.808594 -30.386719 39.839844 -32.804688 C 43.871094 -35.21875 47.960938 -37.535156 52.105469 -39.753906 C 56.253906 -41.96875 60.449219 -44.082031 64.699219 -46.089844 C 68.949219 -48.101562 73.246094 -50.003906 77.589844 -51.804688 C 81.933594 -53.605469 86.316406 -55.296875 90.746094 -56.878906 C 95.171875 -58.460938 99.632812 -59.9375 104.132812 -61.300781 C 108.628906 -62.664062 113.160156 -63.917969 117.71875 -65.0625 C 122.28125 -66.203125 126.867188 -67.234375 131.476562 -68.152344 C 136.085938 -69.066406 140.71875 -69.871094 145.367188 -70.5625 C 150.019531 -71.25 154.683594 -71.828125 159.359375 -72.285156 C 164.039062 -72.746094 168.726562 -73.09375 173.421875 -73.324219 C 178.117188 -73.554688 182.816406 -73.671875 187.515625 -73.671875 C 192.21875 -73.671875 196.914062 -73.554688 201.609375 -73.324219 C 206.304688 -73.09375 210.992188 -72.746094 215.671875 -72.285156 C 220.351562 -71.828125 225.015625 -71.25 229.664062 -70.5625 C 234.3125 -69.871094 238.945312 -69.066406 243.554688 -68.152344 C 248.167969 -67.234375 252.75 -66.203125 257.3125 -65.0625 C 261.871094 -63.917969 266.402344 -62.664062 270.898438 -61.300781 C 275.398438 -59.9375 279.859375 -58.460938 284.289062 -56.878906 C 288.714844 -55.296875 293.097656 -53.605469 297.441406 -51.804688 C 301.785156 -50.003906 306.082031 -48.101562 310.332031 -46.089844 C 314.582031 -44.082031 318.777344 -41.96875 322.925781 -39.753906 C 327.070312 -37.535156 331.160156 -35.21875 335.191406 -32.804688 C 339.222656 -30.386719 343.195312 -27.871094 347.101562 -25.261719 C 351.011719 -22.648438 354.855469 -19.941406 358.628906 -17.140625 C 362.40625 -14.339844 366.113281 -11.449219 369.746094 -8.46875 C 373.378906 -5.484375 376.9375 -2.414062 380.421875 0.742188 C 383.90625 3.898438 387.308594 7.140625 390.632812 10.464844 C 393.957031 13.789062 397.195312 17.191406 400.355469 20.675781 C 403.511719 24.15625 406.582031 27.714844 409.5625 31.351562 C 412.546875 34.984375 415.4375 38.6875 418.238281 42.464844 C 421.039062 46.242188 423.742188 50.082031 426.355469 53.992188 C 428.96875 57.902344 431.480469 61.871094 433.898438 65.902344 C 436.316406 69.9375 438.632812 74.023438 440.847656 78.171875 C 443.0625 82.316406 445.175781 86.515625 447.1875 90.765625 C 449.195312 95.015625 451.101562 99.3125 452.898438 103.652344 C 454.699219 107.996094 456.390625 112.382812 457.972656 116.808594 C 459.558594 121.234375 461.03125 125.695312 462.398438 130.195312 C 463.761719 134.695312 465.015625 139.222656 466.15625 143.785156 C 467.300781 148.34375 468.328125 152.929688 469.246094 157.539062 C 470.164062 162.152344 470.96875 166.78125 471.65625 171.429688 C 472.347656 176.082031 472.921875 180.746094 473.382812 185.425781 C 473.84375 190.101562 474.1875 194.789062 474.417969 199.484375 C 474.652344 204.179688 474.765625 208.878906 474.765625 213.578125 Z M 474.765625 213.578125 " clip-rule="nonzero"/></clipPath></defs><rect x="-37.5" width="450" fill="rgb(100%, 100%, 100%)" y="-37.499999" height="449.999989" fill-opacity="1"/><rect x="-37.5" width="450" fill="rgb(100%, 100%, 100%)" y="-37.499999" height="449.999989" fill-opacity="1"/><rect x="-37.5" width="450" fill="rgb(100%, 100%, 100%)" y="-37.499999" height="449.999989" fill-opacity="1"/><g clip-path="url(#clip-0)"><rect x="-37.5" width="450" fill="rgb(0%, 40.39917%, 95.698547%)" y="-37.499999" height="449.999989" fill-opacity="1"/></g><path fill="rgb(100%, 100%, 100%)" d="M 187.648438 299.835938 C 199.992188 299.835938 210.085938 289.742188 210.085938 277.398438 L 165.210938 277.398438 C 165.210938 289.742188 175.195312 299.835938 187.648438 299.835938 Z M 254.960938 232.523438 L 254.960938 176.429688 C 254.960938 141.988281 236.5625 113.15625 204.476562 105.527344 L 204.476562 97.898438 C 204.476562 88.589844 196.960938 81.070312 187.648438 81.070312 C 178.339844 81.070312 170.820312 88.589844 170.820312 97.898438 L 170.820312 105.527344 C 138.625 113.15625 120.335938 141.878906 120.335938 176.429688 L 120.335938 232.523438 L 105.867188 246.996094 C 98.796875 254.066406 103.734375 266.179688 113.71875 266.179688 L 261.46875 266.179688 C 271.453125 266.179688 276.503906 254.066406 269.433594 246.996094 Z M 254.960938 232.523438 " fill-opacity="1" fill-rule="nonzero"/></svg>