<?xml version="1.0" encoding="UTF-8"?><svg xmlns="http://www.w3.org/2000/svg" xmlns:xlink="http://www.w3.org/1999/xlink" width="375" zoomAndPan="magnify" viewBox="0 0 375 374.999991" height="374.999991" preserveAspectRatio="xMidYMid meet" version="1.0"><path fill="rgb(0%, 40.388489%, 95.689392%)" d="M 187.5 0 C 83.945312 0 0 83.945312 0 187.5 C 0 291.054688 83.945312 375 187.5 375 C 291.054688 375 375 291.054688 375 187.5 C 375 83.945312 291.054688 0 187.5 0 Z M 187.5 0 " fill-opacity="1" fill-rule="nonzero"/><path fill="rgb(100%, 100%, 100%)" d="M 187.648438 299.835938 C 199.992188 299.835938 210.085938 289.742188 210.085938 277.398438 L 165.210938 277.398438 C 165.210938 289.742188 175.195312 299.835938 187.648438 299.835938 Z M 254.960938 232.523438 L 254.960938 176.429688 C 254.960938 141.988281 236.5625 113.15625 204.476562 105.527344 L 204.476562 97.898438 C 204.476562 88.589844 196.960938 81.070312 187.648438 81.070312 C 178.339844 81.070312 170.820312 88.589844 170.820312 97.898438 L 170.820312 105.527344 C 138.625 113.15625 120.335938 141.878906 120.335938 176.429688 L 120.335938 232.523438 L 105.867188 246.996094 C 98.796875 254.066406 103.734375 266.179688 113.71875 266.179688 L 261.46875 266.179688 C 271.453125 266.179688 276.503906 254.066406 269.433594 246.996094 Z M 254.960938 232.523438 " fill-opacity="1" fill-rule="nonzero"/></svg>